<mxfile host="app.diagrams.net" modified="2022-07-18T04:27:08.325Z" agent="5.0 (Macintosh; Intel Mac OS X 10_15_7) AppleWebKit/605.1.15 (KHTML, like Gecko) Version/15.5 Safari/605.1.15" etag="Gmz0t7Pdyy_IxIRwo7tY" version="20.1.1" type="github" pages="2">
  <diagram id="YCn-9LSZ1nXR-8B2seFL" name="Page-1">
    <mxGraphModel dx="946" dy="673" grid="1" gridSize="10" guides="1" tooltips="1" connect="1" arrows="1" fold="1" page="1" pageScale="1" pageWidth="827" pageHeight="1169" math="0" shadow="0">
      <root>
        <mxCell id="0" />
        <mxCell id="1" parent="0" />
      </root>
    </mxGraphModel>
  </diagram>
  <diagram id="BnVX2TDHJi9XgaLCjJ5Y" name="Page-2">
    <mxGraphModel dx="946" dy="673" grid="1" gridSize="10" guides="1" tooltips="1" connect="1" arrows="1" fold="1" page="1" pageScale="1" pageWidth="827" pageHeight="1169" math="0" shadow="0">
      <root>
        <mxCell id="0" />
        <mxCell id="1" parent="0" />
      </root>
    </mxGraphModel>
  </diagram>
</mxfile>
